#!OML:ASF F:\VICON\USERDATA\INSTALL\rory3\rory3.ASF
:FULLY-SPECIFIED
:DEGREES
60
root -7.187656929343858 18.02257342383711 1.0849989600447265 -185.63721685529146 60.246733259425724 -201.82653380105072
lfemur -31.181005727526568 0.6372445654040062 -18.84367736448491
ltibia 19.108814453768098
lfoot 5.080265390995677 -28.48777916361086
ltoes -5.550558539408893
rfemur -17.64811553516776 -3.4318210161756673 4.441902472163498
rtibia 36.054835955145904
rfoot -4.526519732471817 -30.231008582276182
rtoes -0.08177782939232969
lowerback -3.2890296777748746 -6.8827647461478545 2.51638289613961
upperback 4.2221828865605255 -9.629295235764266 9.605640674304881
thorax 7.822224910704898 -4.836814622659101 8.894959716384147
lowerneck -14.889132438115972 -4.0861304557232145 0.7744106854515451
upperneck 27.865045241862205 -1.0922220023441993 -13.061113311267395
head 10.739392460457182 -1.5267441962320403 -4.482399939104523
lclavicle -6.604268083661558e-15 -4.9251364472711905e-15
lhumerus 39.64856520609753 -55.69603837220941 84.07795635276938
lradius 18.257453409806477
lwrist 5.521630659356074
lhand 2.2985684351329976 34.14906098943601
lfingers 7.125020000000003
lthumb -152.2253525769871 398.53691512411183
rclavicle -6.604268083661558e-15 -4.9251364472711905e-15
rhumerus 4.1906541053585755 1.8620127520484058 -80.62694955912475
rradius 57.633171653749066
rwrist -52.69444276059441
rhand -58.557688653016044 8.654068293919364
rfingers 7.125020000000003
rthumb -30.749119042321063 -18.97405062260756
61
root -7.091575935526977 18.066665371516457 0.8965024003140813 -189.3713818239109 53.071148911720286 -203.53445405736508
lfemur -26.339472299534826 -0.4865288294298965 -21.010360891200214
ltibia 14.20079004868441
lfoot 7.3823956823221195 -32.16063424340926
ltoes 0.08248693317205102
rfemur -13.059882465046144 -3.1233129189037516 3.1153296869185567
rtibia 37.2727368478668
rfoot -2.8603144505824964 -31.055356114787493
rtoes 5.977266994285763
lowerback -5.000498063529066 -5.384676236537086 3.472650746788525
upperback 3.7208108697839775 -7.571641128523678 10.72780641450303
thorax 7.942902310550665 -3.6901758732281342 9.917551015678352
lowerneck -13.193044564323625 -7.579149410812729 -0.8839837884249382
upperneck 28.990803481635815 -5.64478201423419 -12.363728815583723
head 10.284653412740942 -3.618717308340497 -4.504801180013064
lclavicle -6.1910136636084e-15 -4.598629503734117e-15
lhumerus 31.49995489471889 -54.384445478104716 87.21206859253145
lradius 18.26298464030475
lwrist 9.58096625351353
lhand 5.798122363281204 42.029815861886775
lfingers 7.125020000000003
lthumb -148.87935049943053 380.0985584896574
rclavicle -6.1910136636084e-15 -4.598629503734117e-15
rhumerus 3.4996180160018326 7.269179986214262 -83.32426687917817
rradius 48.04835823924148
rwrist -57.03472482833075
rhand -52.614479651022506 3.0245258229147147
rfingers 7.125020000000003
rthumb -25.055956692979507 -25.063034028100155
62
root -7.011927498809613 18.09295000180614 0.6891301696769714 -189.49258479704955 46.72408471156551 -201.4934531746641
lfemur -22.005886509560582 -1.934708379004642 -22.96345268067196
ltibia 10.035347041027734
lfoot 9.558145619418063 -35.2991366161148
ltoes 5.61040893044836
rfemur -9.149482117778199 -3.0431960405971887 2.0886206134561327
rtibia 37.95552408284516
rfoot -0.7140922193092791 -31.573920256896137
rtoes 9.38371733289483
lowerback -6.29703245899485 -3.791864621273973 3.998324802100922
upperback 2.9216824766111262 -5.275966073495933 11.657835976656559
thorax 7.451824123954711 -2.4148333324459266 10.911084719058714
lowerneck -11.123027434635645 -11.391700972906879 -2.551898163697371
upperneck 29.588326930696027 -10.758673589238896 -11.402124360631149
head 9.76042007455393 -5.932760957762558 -4.342908060093969
lclavicle -7.023592119726608e-15 -5.1397224239472456e-15
lhumerus 24.563026259076977 -52.23955791099391 89.11927885050537
lradius 18.342608085929744
lwrist 15.540644267020966
lhand 8.598649014698863 49.85088060652538
lfingers 7.125020000000003
lthumb -146.20375806348224 376.9050302232156
rclavicle -7.023592119726609e-15 -5.1397224239472456e-15
rhumerus 4.848661902617721 11.046256085327418 -86.62357268286229
rradius 37.227391349048446
rwrist -58.19208172109201
rhand -44.18905794662658 -2.4597225381425716
rfingers 7.125020000000003
rthumb -16.968375931009845 -31.012322250398256
63
root -6.917256990538288 18.094196819256588 0.5490450357173952 -185.89149402374628 41.76007786046644 -195.8258145022763
lfemur -18.03301111996413 -2.9460107724432296 -24.253474792167165
ltibia 7.624378715621074
lfoot 12.352326871123179 -36.91301396717455
ltoes 12.163406525947726
rfemur -4.994469106979652 -2.8406541892277617 1.766485429523371
rtibia 38.31658834044047
rfoot 2.4758720826435283 -30.917969730127616
rtoes 11.593024082278347
lowerback -6.953263198870291 -1.8085237226928559 4.58401279102899
upperback 2.0578718087619947 -2.323671071075593 12.37937689041573
thorax 6.486425962438282 -0.8019964761130673 11.91535797835761
lowerneck -8.47817192211295 -14.580879970345363 -3.954945126005795
upperneck 29.91979114520249 -15.209484570079296 -9.945709784213651
head 9.333133992873103 -7.897982638422691 -3.98258462170835
lclavicle -6.357813412562322e-15 -4.641663045291296e-15
lhumerus 20.29134804555511 -47.20927096210342 91.2597942329607
lradius 19.033361281080573
lwrist 24.549450341149317
lhand 9.299752831908291 56.70456540078743
lfingers 7.125020000000003
lthumb -145.53382148303666 370.8396043784538
rclavicle -6.357813412562322e-15 -4.641663045291297e-15
rhumerus 9.190419371489433 15.22101106266953 -89.28086975341974
rradius 27.449649575297045
rwrist -54.54042973697315
rhand -33.576982847761656 -6.391068901438036
rfingers 7.125020000000003
rthumb -6.762377778494946 -35.25564523235272
